<svg xmlns="http://www.w3.org/2000/svg" xmlns:xlink="http://www.w3.org/1999/xlink" width="73.361" height="102.367" viewBox="0 0 73.361 102.367"><defs><style>.a,.h{fill:#f2ba30;}.b{fill:url(#a);}.c{fill:none;stroke:#f2ba30;stroke-linecap:round;stroke-linejoin:round;stroke-width:3.06px;opacity:0.57;}.d{fill:url(#b);}.e{fill:url(#c);}.f{fill:#e4a729;}.g{fill:url(#d);}.h{opacity:0.89;}</style><linearGradient id="a" x1="0.43" y1="0.498" x2="1.495" y2="-0.706" gradientUnits="objectBoundingBox"><stop offset="0" stop-color="#f2ba30"/><stop offset="1" stop-color="#fece53" stop-opacity="0.059"/></linearGradient><linearGradient id="b" x1="0.635" y1="0.422" x2="0.23" y2="0.657" gradientUnits="objectBoundingBox"><stop offset="0" stop-color="#f2ba30"/><stop offset="1" stop-color="#fece53"/></linearGradient><linearGradient id="c" x1="1.634" y1="0.314" x2="-1.524" y2="0.824" gradientUnits="objectBoundingBox"><stop offset="0" stop-color="#f2ba30"/><stop offset="1" stop-color="#f2ba30" stop-opacity="0"/></linearGradient><linearGradient id="d" x1="0.5" x2="0.5" y2="1" gradientUnits="objectBoundingBox"><stop offset="0" stop-color="#942882"/><stop offset="1" stop-color="#bb5597"/></linearGradient></defs><g transform="translate(-245.26 155.33) rotate(-45)"><rect class="a" width="43.437" height="2.659" transform="translate(236.843 131.026) rotate(45)"/><path class="b" d="M288.962,122.464c-21.607-2.226-32.819,26.188-21.133,35.74L237,127.374s32.5,13.695,34.081-20.957Z" transform="translate(-0.231 3.664)"/><path class="c" d="M266.56,87.87s10.648-11.536,26.533-3.957" transform="translate(4.309)"/><circle class="d" cx="17.938" cy="17.938" r="17.938" transform="translate(270.165 89.624)"/><path class="e" d="M285.74,93.46c5.71-3.069,13.439,7.775,8.491,20.765-1.027,2.7-3.957.392-2.757-6.506C293.031,98.778,281.622,95.686,285.74,93.46Z" transform="translate(7.116 1.782)"/><path class="f" d="M276.2,90a17.927,17.927,0,0,0,7.683,34.123,8.844,8.844,0,0,0,1.234-.058C271.509,117.79,268.867,102.69,276.2,90Z" transform="translate(4.217 1.331)"/><path class="g" d="M17.915,6.622h-5.48V1.154A1.154,1.154,0,0,0,11.282,0H7.821A1.154,1.154,0,0,0,6.668,1.154V6.622H1.154A1.154,1.154,0,0,0,0,7.775v3.461A1.154,1.154,0,0,0,1.154,12.39H6.668v5.48a1.154,1.154,0,0,0,1.154,1.154h3.461a1.154,1.154,0,0,0,1.154-1.154V12.39h5.5a1.154,1.154,0,0,0,1.154-1.154V7.775a1.154,1.154,0,0,0-1.177-1.154Z" transform="translate(274.622 107.615) rotate(-45)"/><path class="h" d="M.014,15.172A20.765,20.765,0,0,1,.28,11.008,22.414,22.414,0,0,1,1.341,6.947a18.307,18.307,0,0,1,2.042-3.83A9.147,9.147,0,0,1,6.717.164,1.615,1.615,0,0,1,8.62,2.7l-.127.15c-.8.831-1.627,1.523-2.376,2.4A14.386,14.386,0,0,0,4.19,8.193a20.9,20.9,0,0,0-1.35,3.461,25.248,25.248,0,0,0-.831,3.622v.058a.992.992,0,0,1-1.154.842A.981.981,0,0,1,.014,15.172Z" transform="translate(312.041 133.558) rotate(-160)"/></g></svg>