<svg xmlns="http://www.w3.org/2000/svg" xmlns:xlink="http://www.w3.org/1999/xlink" width="45.493" height="81.676" viewBox="0 0 45.493 81.676"><defs><style>.a{fill:url(#a);}.b{fill:url(#b);}.c{fill:#bb5597;}.d{fill:url(#c);}.e{fill:#942882;}.f{fill:#e98bb8;}.g{fill:#f2ba30;}.h{fill:url(#d);}.i{fill:url(#e);}.j{fill:url(#f);}.k{fill:url(#g);}.l{fill:url(#h);}.m{fill:url(#i);}.n{fill:url(#j);}.o{fill:#632438;}.p{fill:#be714c;opacity:0.28;}.q{fill:url(#k);}.r{fill:url(#l);}.s{fill:url(#m);}.t{fill:url(#n);}.u{fill:url(#o);}.v{fill:url(#p);}.w{fill:url(#q);}.x{fill:url(#r);}.y{fill:url(#s);}.z{fill:url(#t);}.aa{fill:url(#u);}.ab{fill:url(#v);}.ac{fill:url(#w);}.ad{fill:url(#x);}.ae{fill:url(#y);}.af{fill:url(#z);}.ag{fill:url(#aa);}.ah{fill:url(#ab);}.ai{fill:url(#ac);}.aj{fill:url(#ad);}.ak{fill:url(#ae);}</style><linearGradient id="a" x1="0.895" y1="0.24" x2="-0.803" y2="1.357" gradientUnits="objectBoundingBox"><stop offset="0" stop-color="#dfd4d4" stop-opacity="0"/><stop offset="1" stop-color="#ded5d6"/></linearGradient><linearGradient id="b" x1="0.545" y1="1.046" x2="0.454" y2="-0.064" gradientUnits="objectBoundingBox"><stop offset="0" stop-color="#ded5d6"/><stop offset="1" stop-color="#dfd4d4" stop-opacity="0"/></linearGradient><linearGradient id="c" x1="-0.274" y1="0.964" x2="2.395" y2="-0.655" xlink:href="#a"/><linearGradient id="d" x1="0.436" y1="0.532" x2="0.822" y2="-0.868" gradientUnits="objectBoundingBox"><stop offset="0" stop-color="#f2ba30"/><stop offset="1" stop-color="#f2ba30" stop-opacity="0"/></linearGradient><linearGradient id="e" x1="0.532" y1="0.685" x2="0.728" y2="1.403" xlink:href="#d"/><linearGradient id="f" x1="-0.28" y1="-0.563" x2="2.684" y2="3.472" xlink:href="#d"/><linearGradient id="g" x1="-0.279" y1="-0.56" x2="2.679" y2="3.467" xlink:href="#d"/><linearGradient id="h" x1="-0.279" y1="-0.561" x2="2.684" y2="3.475" xlink:href="#d"/><linearGradient id="i" x1="-0.279" y1="-0.564" x2="2.684" y2="3.472" xlink:href="#d"/><linearGradient id="j" x1="-0.28" y1="-0.569" x2="2.688" y2="3.477" xlink:href="#d"/><linearGradient id="k" x1="-37.482" y1="581.512" x2="-36.809" y2="581.773" gradientUnits="objectBoundingBox"><stop offset="0" stop-color="#f2b868"/><stop offset="1" stop-color="#f2b868" stop-opacity="0"/></linearGradient><linearGradient id="l" x1="-39.835" y1="510.737" x2="-38.754" y2="510.25" xlink:href="#k"/><linearGradient id="m" x1="-45.397" y1="520.727" x2="-45.138" y2="520.341" xlink:href="#k"/><linearGradient id="n" x1="-49.308" y1="758.218" x2="-47.973" y2="757.494" xlink:href="#k"/><linearGradient id="o" x1="-69.189" y1="1303.946" x2="-69.134" y2="1306.572" xlink:href="#k"/><linearGradient id="p" x1="-207.327" y1="-126.526" x2="-206.654" y2="-126.265" xlink:href="#k"/><linearGradient id="q" x1="-260.508" y1="-91.089" x2="-259.218" y2="-91.492" xlink:href="#k"/><linearGradient id="r" x1="-383.002" y1="-92.628" x2="-382.61" y2="-92.945" xlink:href="#k"/><linearGradient id="s" x1="-363.942" y1="-114.045" x2="-362.139" y2="-114.548" xlink:href="#k"/><linearGradient id="t" x1="-624.302" y1="-165.889" x2="-624.213" y2="-164.369" xlink:href="#k"/><linearGradient id="u" x1="-29.988" y1="-30.795" x2="-28.977" y2="-30.621" xlink:href="#k"/><linearGradient id="v" x1="-29.202" y1="-30.455" x2="-27.726" y2="-30.825" xlink:href="#k"/><linearGradient id="w" x1="-30.415" y1="-33.665" x2="-30.087" y2="-33.98" xlink:href="#k"/><linearGradient id="x" x1="-52.842" y1="-36.825" x2="-50.178" y2="-37.272" xlink:href="#k"/><linearGradient id="y" x1="-107.093" y1="-53.13" x2="-106.934" y2="-51.816" xlink:href="#k"/><linearGradient id="z" x1="-29.865" y1="534.277" x2="-29.191" y2="534.539" xlink:href="#k"/><linearGradient id="aa" x1="-31.833" y1="469.219" x2="-30.751" y2="468.732" xlink:href="#k"/><linearGradient id="ab" x1="-36.061" y1="479.056" x2="-35.802" y2="478.669" xlink:href="#k"/><linearGradient id="ac" x1="-39.535" y1="694.299" x2="-38.196" y2="693.578" xlink:href="#k"/><linearGradient id="ad" x1="-54.927" y1="1202.399" x2="-54.872" y2="1205.032" xlink:href="#k"/><linearGradient id="ae" x1="0" y1="0.5" x2="1" y2="0.5" xlink:href="#d"/></defs><g transform="translate(-55.06 0)"><g transform="translate(55.06 0)"><path class="a" d="M69.46,88.352V77.171A17.718,17.718,0,0,1,79.9,61.056,5.179,5.179,0,0,0,81.453,60a7.475,7.475,0,0,0,1.343-8.79A4.873,4.873,0,0,0,80.335,49,17.637,17.637,0,0,1,69.46,32.685V21.5h35.351V32.685A17.637,17.637,0,0,1,93.946,49a4.859,4.859,0,0,0-2.461,2.208A7.465,7.465,0,0,0,92.828,60a5.123,5.123,0,0,0,1.558,1.055,17.718,17.718,0,0,1,10.425,16.114V88.352Z" transform="translate(-64.397 -13.94)"/><path class="b" d="M101.8,20.6V30.727A16.575,16.575,0,0,1,91.573,46.064a5.946,5.946,0,0,0-2.992,2.7,8.527,8.527,0,0,0,1.533,10.017,6.329,6.329,0,0,0,1.874,1.276,16.645,16.645,0,0,1,9.81,15.158V85.332H68.564V75.213a16.645,16.645,0,0,1,9.81-15.158,6.329,6.329,0,0,0,1.871-1.276,8.527,8.527,0,0,0,1.537-10.017,5.956,5.956,0,0,0-3-2.7A16.578,16.578,0,0,1,68.564,30.727V20.6Zm2.11-2.11H66.44V30.727a18.741,18.741,0,0,0,11.531,17.3A3.8,3.8,0,0,1,79.9,49.745a6.434,6.434,0,0,1-1.153,7.532,4.194,4.194,0,0,1-1.241.837,18.741,18.741,0,0,0-11.062,17.1V87.459h37.485V75.213a18.742,18.742,0,0,0-11.065-17.1,4.152,4.152,0,0,1-1.238-.835,6.435,6.435,0,0,1-1.153-7.532A3.8,3.8,0,0,1,92.4,48.026a18.741,18.741,0,0,0,11.529-17.3V18.48Z" transform="translate(-62.439 -11.982)"/><path class="c" d="M96.3,8.5H59.311A4.251,4.251,0,0,1,55.06,4.247h0A4.247,4.247,0,0,1,59.311,0H96.3a4.247,4.247,0,0,1,4.251,4.247h0A4.251,4.251,0,0,1,96.3,8.5Z" transform="translate(-55.06 0)"/><path class="d" d="M147.877,30.82c2.222-.872,3.92,7.264-.264,11.536-4.353,4.444-4.722-.51-1.839-3.815S145.655,31.689,147.877,30.82Z" transform="translate(-112.674 -19.942)"/><path class="e" d="M96.3,12.719H59.311A4.247,4.247,0,0,1,55.169,9.41a4.339,4.339,0,0,0-.109.938,4.413,4.413,0,0,0,4.251,4.437H96.3a4.413,4.413,0,0,0,4.251-4.437,4.338,4.338,0,0,0-.109-.939A4.247,4.247,0,0,1,96.3,12.719Z" transform="translate(-55.06 -6.101)"/><path class="f" d="M100.187,0H63.2A4.219,4.219,0,0,0,61.06.584C64.1,1.758,68.82,2.852,75.729,2.852c13.9,0,25.9.158,28.452,2.83A4.231,4.231,0,0,0,100.187,0Z" transform="translate(-58.95 0)"/><path class="c" d="M96.3,216.045H59.311A4.247,4.247,0,0,1,55.06,211.8h0a4.248,4.248,0,0,1,4.251-4.247H96.3a4.248,4.248,0,0,1,4.251,4.247h0A4.247,4.247,0,0,1,96.3,216.045Z" transform="translate(-55.06 -134.573)"/><path class="e" d="M96.3,220.295H59.311A4.251,4.251,0,0,1,55.169,217a4.338,4.338,0,0,0-.109.939,4.415,4.415,0,0,0,4.251,4.437H96.3a4.415,4.415,0,0,0,4.251-4.437,4.338,4.338,0,0,0-.109-.939A4.251,4.251,0,0,1,96.3,220.295Z" transform="translate(-55.06 -140.7)"/><path class="f" d="M100.187,207.55H63.2a4.219,4.219,0,0,0-2.141.584A41.265,41.265,0,0,0,75.729,210.4c13.9,0,25.9.158,28.452,2.83a4.219,4.219,0,0,0-3.994-5.682Z" transform="translate(-58.95 -134.573)"/><path class="g" d="M97.338,101.059C94.233,97.726,93.375,90.81,93.375,85S104.1,76.5,105.65,71a31.578,31.578,0,0,1-12.922,2.521A30.278,30.278,0,0,1,79.972,71c1.554,5.5,12.275,8.193,12.275,14,0,4.219-.186,11.5-3.59,14.56S78.08,100.817,78.08,109.948v7.816h29.3v-7.816C107.38,104.916,100.439,104.4,97.338,101.059Z" transform="translate(-69.986 -46.036)"/><path class="h" d="M88.486,164.359c-2.939-.468-7.781-.158-6.681,9.268.264,2.233,1.406-2.746,3.625-5.531S91.992,164.915,88.486,164.359Z" transform="translate(-72.298 -106.484)"/><path class="i" d="M109.7,176.35a4.444,4.444,0,0,0-1.055-2.939c-1.733,3.945-7.553,10.756-26.986,10.756H109.7Z" transform="translate(-72.307 -112.437)"/><circle class="j" cx="1.006" cy="1.006" r="1.006" transform="translate(24.099 60.973)"/><circle class="k" cx="0.756" cy="0.756" r="0.756" transform="translate(19.989 55.136)"/><circle class="l" cx="0.573" cy="0.573" r="0.573" transform="translate(25.538 57.453)"/><circle class="m" cx="0.573" cy="0.573" r="0.573" transform="translate(19.659 60.832)"/><circle class="n" cx="0.383" cy="0.383" r="0.383" transform="translate(22.528 59.05)"/><path class="o" d="M144.654,154.7c-.626-1.224-2.623-1.449-4.455-.506s-2.813,2.7-2.187,3.917l.352.651c.626,1.224,2.623,1.449,4.455.506s2.813-2.7,2.187-3.917Z" transform="translate(-108.723 -99.602)"/><path class="p" d="M144.228,170.539a3.681,3.681,0,0,1-1.111.123c-.243,0-.9-.12-.967-.077a3.818,3.818,0,0,0,2.461.035C144.646,170.521,144.467,170.455,144.228,170.539Z" transform="translate(-111.528 -110.551)"/><path class="p" d="M153.767,160.56s-.172.028-.369.665a4.723,4.723,0,0,1-2.219,2.612.954.954,0,0,0-.109.091c.109-.046.218-.1.324-.155A3.855,3.855,0,0,0,153.767,160.56Z" transform="translate(-117.312 -104.105)"/><path class="o" d="M138.2,158.716l-.352-.65c-.64-1.241.352-3.024,2.2-3.977s3.868-.7,4.515.524l.334.654c.64,1.238-.352,3.024-2.2,3.973S138.832,159.957,138.2,158.716Zm6.3-4.065c-.615-1.2-2.588-1.406-4.4-.485s-2.781,2.662-2.166,3.868l.334.654c.619,1.2,2.591,1.406,4.4.489s2.781-2.662,2.166-3.868Z" transform="translate(-108.615 -99.532)"/><ellipse class="q" cx="3.734" cy="2.486" rx="3.734" ry="2.486" transform="matrix(0.89, -0.457, 0.457, 0.89, 28.155, 56.304)"/><path class="r" d="M137.9,158.065c-.64-1.241.352-3.024,2.2-3.977s3.868-.7,4.515.524-.352,3.024-2.2,3.977S138.538,159.306,137.9,158.065Zm6.638-3.414c-.615-1.2-2.588-1.406-4.4-.485s-2.781,2.662-2.166,3.868,2.591,1.406,4.4.489S145.158,155.85,144.54,154.651Z" transform="translate(-108.647 -99.532)"/><g transform="translate(29.1 54.023)"><path class="s" d="M141.281,156.23a7.982,7.982,0,0,1,2.648-2.236,4.077,4.077,0,0,0-3.731.232c-1.835.942-2.813,2.7-2.187,3.917a2.11,2.11,0,0,0,1.663,1.055,8.534,8.534,0,0,1,1.607-2.968Z" transform="translate(-137.822 -153.644)"/></g><path class="o" d="M141.318,155.213c-1.547.795-2.37,2.285-1.832,3.33a1.674,1.674,0,0,0,1.034.816,1.537,1.537,0,0,1-.819-.7c-.506-.985.285-2.4,1.758-3.164s3.087-.577,3.593.408a1.54,1.54,0,0,1,.1,1.076,1.681,1.681,0,0,0-.063-1.315C144.56,154.619,142.869,154.419,141.318,155.213Z" transform="translate(-109.694 -100.323)"/><path class="t" d="M139.84,160.333l.049.081.06.095.1.113a.816.816,0,0,0,.137.13l.081.07.095.06a2.08,2.08,0,0,0,.478.222,2.363,2.363,0,0,0,.292.07,1.937,1.937,0,0,0,.32.039,3.585,3.585,0,0,0,.7-.021,4.26,4.26,0,0,0,.728-.169,4.649,4.649,0,0,0,1.923-1.2,3.969,3.969,0,0,0,.422-.552,2.051,2.051,0,0,0,.155-.285,2.555,2.555,0,0,0,.112-.278l.039-.137.018-.067v-.067a1.553,1.553,0,0,0,.028-.246v-.222a.918.918,0,0,0-.025-.183.454.454,0,0,0-.039-.148l-.042-.106-.032-.088.035.088.046.1q.021.063.042.148a.894.894,0,0,1,.032.186.957.957,0,0,1,0,.105v.116a2.015,2.015,0,0,1-.088.527c-.032.095-.067.19-.109.288a2.511,2.511,0,0,1-.151.288,3.479,3.479,0,0,1-.425.57,4.1,4.1,0,0,1-.563.5,4.743,4.743,0,0,1-.661.415,4.6,4.6,0,0,1-.724.3,3.98,3.98,0,0,1-.738.165,3.419,3.419,0,0,1-.7,0,2.314,2.314,0,0,1-.324-.046c-.105-.021-.2-.049-.3-.077a1.958,1.958,0,0,1-.478-.239l-.095-.067-.081-.07a.789.789,0,0,1-.13-.137c-.035-.042-.07-.081-.095-.116l-.056-.1Z" transform="translate(-110.03 -102.089)"/><path class="u" d="M141.908,156.182a3.892,3.892,0,0,0-1.438,1.565c.06-.081,1.558-2.089,3.558-2.11a1.713,1.713,0,0,0,.447-.067,3.562,3.562,0,0,0-2.567.612Z" transform="translate(-110.439 -100.846)"/><path class="g" d="M131.232,159c2.155.221.7,1.055,3.038,1.7s.517,1.252,2.257,1.484a3.682,3.682,0,0,1,2.363,1.009s-3.639,2.328-5.949.415A4.923,4.923,0,0,1,131.232,159Z" transform="translate(-104.404 -103.094)"/><path class="o" d="M112.158,68.093c1.252.847,3.295,0,4.571-1.864s1.294-4.089.042-4.923l-.668-.454c-1.252-.847-3.295,0-4.571,1.867s-1.294,4.086-.042,4.923Z" transform="translate(-91.048 -39.243)"/><path class="p" d="M115.891,61.669a4.065,4.065,0,0,1,1.006-.7,10.131,10.131,0,0,0,.977-.436,4.219,4.219,0,0,0-2.384,1.259C115.5,61.908,115.708,61.88,115.891,61.669Z" transform="translate(-94.242 -39.247)"/><path class="p" d="M110.941,70.486s.151-.116,0-.833a5.224,5.224,0,0,1,.759-3.7.917.917,0,0,0,.06-.148c-.081.105-.158.211-.232.323C110.491,67.674,110.29,69.435,110.941,70.486Z" transform="translate(-91.05 -42.67)"/><path class="o" d="M116.044,60.687l.668.454c1.273.861,1.259,3.1-.028,5s-3.361,2.739-4.634,1.878l-.665-.454c-1.273-.861-1.259-3.1.025-5S114.774,59.826,116.044,60.687ZM112.1,67.941c1.227.83,3.249,0,4.5-1.853s1.28-4.036.053-4.87l-.665-.454c-1.227-.83-3.249,0-4.5,1.853s-1.283,4.036-.056,4.87Z" transform="translate(-90.967 -39.13)"/><ellipse class="v" cx="4.107" cy="2.736" rx="4.107" ry="2.736" transform="translate(18.848 27.315) rotate(-55.86)"/><path class="w" d="M117.94,61.977c1.273.861,1.259,3.1-.028,5s-3.361,2.739-4.634,1.878-1.255-3.1.028-5S116.671,61.116,117.94,61.977Zm-4.61,6.8c1.227.83,3.249,0,4.5-1.853s1.28-4.037.053-4.87-3.245,0-4.5,1.853S112.1,67.944,113.331,68.777Z" transform="translate(-92.195 -39.966)"/><g transform="translate(22.201 21.731)"><path class="x" d="M119.575,65.695a8.79,8.79,0,0,1-1.375,3.562,4.5,4.5,0,0,0,3.477-2.194c1.273-1.878,1.294-4.089.042-4.923a2.335,2.335,0,0,0-2.159-.134A9.4,9.4,0,0,1,119.575,65.695Z" transform="translate(-118.2 -61.803)"/></g><path class="o" d="M118.665,67.912c1.076-1.586,1.079-3.456,0-4.181a1.86,1.86,0,0,0-1.428-.243,1.677,1.677,0,0,1,1.164.25c1.006.686.992,2.461-.035,3.98s-2.672,2.184-3.681,1.5a1.684,1.684,0,0,1-.665-.988,1.86,1.86,0,0,0,.752,1.238C115.852,70.194,117.592,69.5,118.665,67.912Z" transform="translate(-93.289 -41.133)"/><path class="y" d="M118.528,63.661l-.088-.049-.109-.06-.155-.06a2.238,2.238,0,0,0-.313-.074h-.127a2.219,2.219,0,0,0-.577.039,2.877,2.877,0,0,0-.32.084,3.257,3.257,0,0,0-.331.134,3.964,3.964,0,0,0-.658.387,5.254,5.254,0,0,0-.615.545,5.372,5.372,0,0,0-.527.661,4.962,4.962,0,0,0-.418.738,4.6,4.6,0,0,0-.278.77,3.922,3.922,0,0,0-.12.745,2.99,2.99,0,0,0,0,.352,3.269,3.269,0,0,0,.039.331l.035.151.018.074.025.067a1.445,1.445,0,0,0,.1.257l.053.113c.021.035.046.067.067.1a.879.879,0,0,0,.123.165l.113.123.095.077.077.067-.081-.063-.1-.077c-.035-.032-.074-.074-.116-.12a.9.9,0,0,1-.13-.162l-.07-.095-.06-.113a2.11,2.11,0,0,1-.193-.556,3.165,3.165,0,0,1-.049-.352,3.093,3.093,0,0,1,0-.352,3.793,3.793,0,0,1,.109-.77,4.542,4.542,0,0,1,.278-.784,5.217,5.217,0,0,1,.418-.749,5.044,5.044,0,0,1,.541-.668,4.786,4.786,0,0,1,.626-.549,3.773,3.773,0,0,1,.675-.387,2.88,2.88,0,0,1,.352-.13c.113-.032.222-.056.327-.081a2.127,2.127,0,0,1,.591-.021h.127L118,63.4a.93.93,0,0,1,.2.06c.06.025.112.042.155.063l.105.063Z" transform="translate(-93.17 -41.08)"/><path class="z" d="M123.012,70.511a4.36,4.36,0,0,0,.563-2.271c0,.109-.4,2.838-2.331,3.9a1.92,1.92,0,0,0-.394.3,3.913,3.913,0,0,0,2.162-1.934Z" transform="translate(-97.717 -44.246)"/><path class="o" d="M100.548,68.139c1.473-.352,2.261-2.4,1.758-4.61s-2.11-3.738-3.572-3.4l-.788.176c-1.473.352-2.264,2.4-1.758,4.61s2.11,3.738,3.572,3.4Z" transform="translate(-81.627 -38.955)"/><path class="p" d="M96.242,65.3a3.91,3.91,0,0,1,.176-1.213c.063-.264.373-.932.352-1.013a4.241,4.241,0,0,0-.7,2.6C96.144,65.746,96.267,65.573,96.242,65.3Z" transform="translate(-81.643 -40.894)"/><path class="p" d="M99.1,76.531s.018-.19-.6-.577a5.214,5.214,0,0,1-2.176-3.08.7.7,0,0,0-.067-.144c.021.13.046.26.077.39C96.735,74.935,97.885,76.288,99.1,76.531Z" transform="translate(-81.767 -47.157)"/><path class="o" d="M97.861,60.184l.788-.176c1.5-.352,3.126,1.2,3.629,3.439s-.3,4.328-1.8,4.666l-.784.176c-1.5.352-3.126-1.2-3.629-3.439S96.366,60.522,97.861,60.184Zm2.6,7.837c1.445-.327,2.219-2.37,1.726-4.571s-2.071-3.7-3.516-3.368l-.788.176c-1.445.327-2.222,2.37-1.726,4.571s2.071,3.7,3.516,3.368Z" transform="translate(-81.549 -38.877)"/><ellipse class="aa" cx="2.736" cy="4.107" rx="2.736" ry="4.107" transform="translate(14.437 21.782) rotate(-12.72)"/><path class="ab" d="M100.094,60.008c1.5-.352,3.126,1.2,3.629,3.439s-.3,4.328-1.8,4.666-3.126-1.206-3.629-3.439S98.6,60.346,100.094,60.008Zm1.811,8.013c1.445-.327,2.219-2.37,1.726-4.571s-2.071-3.7-3.516-3.368-2.222,2.37-1.73,4.571S100.456,68.349,101.905,68.022Z" transform="translate(-82.995 -38.877)"/><g transform="translate(15.548 21.132)"><path class="ac" d="M101.994,64.154a8.79,8.79,0,0,1,1.656,3.435,4.507,4.507,0,0,0,.777-4.04c-.5-2.212-2.11-3.738-3.572-3.4a2.338,2.338,0,0,0-1.575,1.484A9.311,9.311,0,0,1,101.994,64.154Z" transform="translate(-99.28 -60.1)"/></g><path class="o" d="M105.128,64.777c-.422-1.867-1.786-3.165-3.045-2.866a1.835,1.835,0,0,0-1.153.876,1.67,1.67,0,0,1,.977-.679c1.188-.267,2.479.96,2.88,2.746s-.232,3.446-1.406,3.713a1.677,1.677,0,0,1-1.174-.19,1.857,1.857,0,0,0,1.406.3C104.868,68.388,105.55,66.644,105.128,64.777Z" transform="translate(-84.802 -40.115)"/><path class="ad" d="M101.081,62l-.1.032-.116.039c-.046,0-.095.046-.151.074a1.034,1.034,0,0,0-.172.105l-.095.07-.095.084a2.184,2.184,0,0,0-.352.447c-.053.091-.109.19-.158.292a3.069,3.069,0,0,0-.127.331,4.091,4.091,0,0,0-.169.749,4.869,4.869,0,0,0-.021.819,5.643,5.643,0,0,0,.105.826,5.551,5.551,0,0,0,.253.809,4.923,4.923,0,0,0,.373.731,4.1,4.1,0,0,0,.471.6,2.786,2.786,0,0,0,.257.246c.088.07.179.137.267.2l.137.077.063.039.067.028a1.406,1.406,0,0,0,.257.1l.12.035a.227.227,0,0,1,.116.021.854.854,0,0,0,.2.021h.288l-.12.021h-.169a1.084,1.084,0,0,1-.207,0h-.116l-.123-.035a2.025,2.025,0,0,1-.541-.236c-.088-.056-.183-.123-.274-.193a3.4,3.4,0,0,1-.267-.243,3.7,3.7,0,0,1-.489-.608,4.572,4.572,0,0,1-.38-.738,4.846,4.846,0,0,1-.38-1.67,5.028,5.028,0,0,1,.028-.833,3.9,3.9,0,0,1,.179-.756c.039-.12.091-.229.137-.352a1.664,1.664,0,0,1,.165-.3,2.11,2.11,0,0,1,.387-.45l.095-.084.1-.063a1.1,1.1,0,0,1,.183-.105l.151-.067.12-.035Z" transform="translate(-83.831 -40.2)"/><path class="ae" d="M109.28,65.692A4.3,4.3,0,0,0,108,63.73c.07.084,1.8,2.233,1.255,4.367a1.79,1.79,0,0,0-.046.5A3.945,3.945,0,0,0,109.28,65.692Z" transform="translate(-89.386 -41.322)"/><path class="o" d="M132.352,68.465c-.7-1.343-2.883-1.593-4.9-.556s-3.094,2.968-2.405,4.311l.352.7c.7,1.343,2.887,1.593,4.923.556s3.091-2.968,2.4-4.311Z" transform="translate(-100.303 -43.616)"/><path class="p" d="M131.9,85.908a3.952,3.952,0,0,1-1.22.134c-.271,0-1-.13-1.055-.084a4.219,4.219,0,0,0,2.693.039C132.366,85.88,132.165,85.8,131.9,85.908Z" transform="translate(-103.41 -55.669)"/><path class="p" d="M142.378,74.91s-.19.032-.408.731a5.2,5.2,0,0,1-2.44,2.876,1.183,1.183,0,0,0-.12.1q.179-.081.352-.169A4.271,4.271,0,0,0,142.378,74.91Z" transform="translate(-109.752 -48.571)"/><path class="o" d="M125.318,72.9l-.352-.7c-.7-1.364.387-3.326,2.426-4.374s4.265-.788,4.965.577l.352.7c.7,1.364-.387,3.326-2.423,4.374S126.021,74.265,125.318,72.9Zm6.937-4.473c-.675-1.319-2.848-1.558-4.838-.534s-3.063,2.929-2.384,4.247l.352.7c.679,1.319,2.848,1.558,4.838.534s3.063-2.929,2.384-4.247Z" transform="translate(-100.248 -43.559)"/><ellipse class="af" cx="4.107" cy="2.736" rx="4.107" ry="2.736" transform="matrix(0.89, -0.457, 0.457, 0.89, 23.495, 26.173)"/><path class="ag" d="M124.916,72.158c-.7-1.364.387-3.326,2.426-4.374s4.265-.788,4.965.577-.387,3.326-2.423,4.374S125.619,73.522,124.916,72.158Zm7.306-3.755c-.675-1.319-2.848-1.558-4.838-.534S124.322,70.8,125,72.116s2.848,1.558,4.842.534S132.894,69.721,132.222,68.4Z" transform="translate(-100.215 -43.533)"/><g transform="translate(24.535 23.653)"><path class="ah" d="M128.643,70.114a8.762,8.762,0,0,1,2.915-2.461,4.5,4.5,0,0,0-4.107.257c-2.018,1.055-3.094,2.968-2.405,4.311a2.342,2.342,0,0,0,1.828,1.153A9.417,9.417,0,0,1,128.643,70.114Z" transform="translate(-124.837 -67.269)"/></g><path class="o" d="M128.691,69.024c-1.7.876-2.605,2.518-2.015,3.667a1.874,1.874,0,0,0,1.136.9,1.681,1.681,0,0,1-.9-.781c-.559-1.083.309-2.637,1.934-3.474s3.4-.633,3.952.45a1.649,1.649,0,0,1,.109,1.185,1.846,1.846,0,0,0-.067-1.445C132.253,68.377,130.4,68.155,128.691,69.024Z" transform="translate(-101.378 -44.411)"/><path class="ai" d="M127.06,74.675l.053.088.067.105c.032.039.07.077.109.127a1.14,1.14,0,0,0,.148.141.642.642,0,0,0,.091.074l.105.07a2.2,2.2,0,0,0,.524.243c.1.028.211.06.323.081a2.756,2.756,0,0,0,.352.039,3.741,3.741,0,0,0,.763-.025,4.782,4.782,0,0,0,.8-.183,5.373,5.373,0,0,0,.781-.323,5.136,5.136,0,0,0,.7-.45,4.569,4.569,0,0,0,.615-.541,3.869,3.869,0,0,0,.468-.6,3.462,3.462,0,0,0,.172-.313c.046-.1.088-.207.123-.306l.042-.151.021-.074V72.6a1.263,1.263,0,0,0,.032-.274v-.243a.9.9,0,0,0-.028-.2.545.545,0,0,0-.039-.162l-.046-.113-.039-.095.042.091.049.116.046.158a.88.88,0,0,1,.035.207v.243a2.188,2.188,0,0,1-.095.584c-.035.1-.074.207-.12.313a3.1,3.1,0,0,1-.169.32,4,4,0,0,1-.464.626,4.712,4.712,0,0,1-.622.552,5.363,5.363,0,0,1-.689.478,5.927,5.927,0,0,1-.8.323,4.9,4.9,0,0,1-.812.183,4.166,4.166,0,0,1-.781,0,2.231,2.231,0,0,1-.352-.049,2.344,2.344,0,0,1-.327-.088,2.168,2.168,0,0,1-.527-.26l-.105-.074a.958.958,0,0,1-.088-.081.945.945,0,0,1-.144-.148c-.039-.049-.077-.091-.105-.13l-.063-.109Z" transform="translate(-101.744 -46.366)"/><path class="aj" d="M129.326,70.111a4.336,4.336,0,0,0-1.586,1.723c.067-.091,1.716-2.3,3.917-2.307a1.976,1.976,0,0,0,.492-.077A3.92,3.92,0,0,0,129.326,70.111Z" transform="translate(-102.185 -45.002)"/><path class="g" d="M94.609,77.316c1.9,1.055,5.492-.9,7.9.868s4.219-1.1,6.93-.668A6.359,6.359,0,0,0,113.634,77s-.232,2.665-9.058,6.445C101.145,84,94.12,78.758,94.12,78.758" transform="translate(-80.386 -49.926)"/><path class="ak" d="M124.82,83.5c1.758-.091,6.283-3.8,6.463-4.789s-2.619,1.371-5.548,2.075S123.055,83.58,124.82,83.5Z" transform="translate(-99.441 -50.881)"/></g></g></svg>