<svg xmlns="http://www.w3.org/2000/svg" xmlns:xlink="http://www.w3.org/1999/xlink" width="61.436" height="94.546" viewBox="0 0 61.436 94.546">
  <defs>
    <linearGradient id="linear-gradient" x1="0.425" y1="0.957" x2="0.48" y2="0.328" gradientUnits="objectBoundingBox">
      <stop offset="0.04" stop-color="#e2a541"/>
      <stop offset="1" stop-color="#e6c382"/>
    </linearGradient>
    <linearGradient id="linear-gradient-2" x1="0.542" y1="-0.032" x2="0.438" y2="1.278" gradientUnits="objectBoundingBox">
      <stop offset="0" stop-color="#cb8121" stop-opacity="0"/>
      <stop offset="1" stop-color="#cb8121"/>
    </linearGradient>
    <linearGradient id="linear-gradient-3" x1="0.537" y1="-0.105" x2="0.468" y2="0.968" xlink:href="#linear-gradient-2"/>
    <linearGradient id="linear-gradient-4" x1="0.509" y1="0.678" x2="0.782" y2="0.007" xlink:href="#linear-gradient"/>
    <linearGradient id="linear-gradient-5" y1="0.5" x2="1" y2="0.5" gradientUnits="objectBoundingBox">
      <stop offset="0" stop-color="#f2ba30"/>
      <stop offset="1" stop-color="#fece53" stop-opacity="0"/>
    </linearGradient>
    <linearGradient id="linear-gradient-6" x1="0.153" y1="0.135" x2="0.647" y2="0.659" xlink:href="#linear-gradient-5"/>
    <clipPath id="clip-path">
      <path id="Path_612" data-name="Path 612" d="M73.263,3.071c-5.9,4.717-10.692,12.144-8.942,16.18s10.84,7.151,10.5,6.083c-.648-2.014,1.052-3.376,5.678-3.194,7.061.276,12.937,9.875,19.539,10.221,9.458.5,15.268-9.1,19.568-8.814s10.519-12.124,0-18.314S79.159-1.658,73.263,3.071Z" transform="translate(-63.955 0.013)" fill="none"/>
    </clipPath>
    <linearGradient id="linear-gradient-7" x1="-0.09" y1="0.398" x2="0.921" y2="0.572" gradientUnits="objectBoundingBox">
      <stop offset="0" stop-color="#f2b868"/>
      <stop offset="1" stop-color="#f2b868" stop-opacity="0"/>
    </linearGradient>
    <linearGradient id="linear-gradient-8" x1="-0.626" y1="0.79" x2="0.825" y2="0.416" xlink:href="#linear-gradient-7"/>
    <linearGradient id="linear-gradient-9" x1="0.474" y1="0.551" x2="0.792" y2="0.228" xlink:href="#linear-gradient-7"/>
    <linearGradient id="linear-gradient-10" x1="-1.206" y1="0.845" x2="1.274" y2="0.394" xlink:href="#linear-gradient-7"/>
    <linearGradient id="linear-gradient-11" x1="0.419" y1="-0.443" x2="0.559" y2="0.895" xlink:href="#linear-gradient-7"/>
    <linearGradient id="linear-gradient-12" x1="-231.111" y1="0.347" x2="-230.438" y2="0.609" xlink:href="#linear-gradient-7"/>
    <linearGradient id="linear-gradient-13" x1="-326.466" y1="0.79" x2="-325.015" y2="0.416" xlink:href="#linear-gradient-7"/>
    <linearGradient id="linear-gradient-14" x1="-345.589" y1="0.551" x2="-345.272" y2="0.228" xlink:href="#linear-gradient-7"/>
    <linearGradient id="linear-gradient-15" x1="-558.775" y1="0.848" x2="-556.295" y2="0.395" xlink:href="#linear-gradient-7"/>
    <linearGradient id="linear-gradient-16" x1="-1102.194" y1="-0.443" x2="-1102.053" y2="0.895" xlink:href="#linear-gradient-7"/>
    <linearGradient id="linear-gradient-17" x1="74.583" y1="87.548" x2="75.594" y2="87.722" xlink:href="#linear-gradient-7"/>
    <linearGradient id="linear-gradient-18" x1="55.236" y1="106.343" x2="56.388" y2="105.895" xlink:href="#linear-gradient-7"/>
    <linearGradient id="linear-gradient-19" x1="56.817" y1="147.442" x2="57.057" y2="146.957" xlink:href="#linear-gradient-7"/>
    <linearGradient id="linear-gradient-20" x1="70.17" y1="142.788" x2="71.635" y2="142.186" xlink:href="#linear-gradient-7"/>
    <linearGradient id="linear-gradient-21" x1="103.747" y1="232.401" x2="103.808" y2="234.484" xlink:href="#linear-gradient-7"/>
    <linearGradient id="linear-gradient-22" x1="-205.589" y1="-47.069" x2="-204.916" y2="-46.808" xlink:href="#linear-gradient-7"/>
    <linearGradient id="linear-gradient-23" x1="-229.238" y1="-37.728" x2="-228.092" y2="-38.181" xlink:href="#linear-gradient-7"/>
    <linearGradient id="linear-gradient-24" x1="-282.137" y1="-38.58" x2="-281.846" y2="-38.936" xlink:href="#linear-gradient-7"/>
    <linearGradient id="linear-gradient-25" x1="-290.671" y1="-51.375" x2="-289.218" y2="-51.989" xlink:href="#linear-gradient-7"/>
    <linearGradient id="linear-gradient-26" x1="-433.068" y1="-83.574" x2="-433.005" y2="-81.548" xlink:href="#linear-gradient-7"/>
    <linearGradient id="linear-gradient-27" x1="0.468" y1="0.84" x2="0.503" y2="0.117" xlink:href="#linear-gradient-5"/>
    <linearGradient id="linear-gradient-28" x1="-0.057" y1="0.5" x2="1.037" y2="0.5" xlink:href="#linear-gradient-5"/>
    <radialGradient id="radial-gradient" cx="1.077" cy="-0.285" r="1.681" gradientTransform="translate(-0.114) scale(1.227 1)" gradientUnits="objectBoundingBox">
      <stop offset="0" stop-color="#fff"/>
      <stop offset="1" stop-color="#fff" stop-opacity="0"/>
    </radialGradient>
  </defs>
  <g id="Icon-LP" transform="translate(-63.955 11.423)">
    <g id="Layer_1" data-name="Layer 1" transform="translate(63.955 -11.423)">
      <path id="Path_556" data-name="Path 556" d="M101.974,73.724c1.362-9.561-7.634-16.452-7.634-16.452s1.605,2.265,8.666,2.542,16.126-4.659,22.523-6.334a18.3,18.3,0,0,1,11.926,1.176L126.028,73.724Z" transform="translate(-81.802 -31.096)" fill="#cb8121"/>
      <path id="Path_557" data-name="Path 557" d="M128,62.355a20.557,20.557,0,0,0,18.342-.627A36.763,36.763,0,0,1,157.9,57.51S147.58,71.363,138.349,71.59,128,62.355,128,62.355Z" transform="translate(-101.572 -33.773)" fill="#b67514"/>
      <path id="Path_558" data-name="Path 558" d="M99.411,74.123s-1.931-9.957-6.433-13.7-4.23-7.052,2.806-6.776,12.937,9.875,19.539,10.221c9.458.5,15.268-9.1,19.568-8.814s-7.651,8.047-8.7,18C125.846,76.289,99.411,74.123,99.411,74.123Z" transform="translate(-79.239 -31.494)" fill="url(#linear-gradient)"/>
      <path id="Path_559" data-name="Path 559" d="M151.4,78.471h11.253c1.271-4.919,4.882-9.161,7.193-12.021C165.038,68.53,161.139,77.769,151.4,78.471Z" transform="translate(-115.316 -39.024)" fill="url(#linear-gradient-2)"/>
      <path id="Path_560" data-name="Path 560" d="M101.41,75.247c-2.946-1.333,2.014-7.919-3.755-9.834-2.447-.825-4.457-1.527-6.5-1.993a10.915,10.915,0,0,0,2.476,2.752c3.3,2.757,5.237,8.88,6.016,11.917l19.49-1.325S104.369,76.579,101.41,75.247Z" transform="translate(-79.934 -37.244)" fill="url(#linear-gradient-3)"/>
      <path id="Path_561" data-name="Path 561" d="M125.092,126.946c-3.512-7.908-8.913-16.174-13.894-23.656H87.144a236.608,236.608,0,0,0-13.783,23.656c-8.3,16.65-3.57,22.139,6.19,26.072,7.226,2.919,32.187,2.919,39.392,0C128.661,149.1,131.117,140.514,125.092,126.946Z" transform="translate(-66.972 -60.662)" fill="url(#linear-gradient-4)"/>
      <path id="Path_562" data-name="Path 562" d="M149.15,138.267q-.73-2.785-1.828-5.843c-3.512-9.739-8.913-19.919-13.894-29.133H109.375c-.825,1.519-1.626,3.07-2.435,4.642,8.038.062,22.564.759,27.809,5.6C139.263,117.7,146.579,132.749,149.15,138.267Z" transform="translate(-89.202 -60.662)" fill="#cb8121"/>
      <path id="Path_563" data-name="Path 563" d="M134.746,99.5c0,1.465-.536,2.653-1.2,2.653H103.731c-.664,0-1.2-1.188-1.2-2.653V97.313c0-1.465.536-2.653,1.2-2.653h29.818c.66,0,1.2,1.188,1.2,2.653Z" transform="translate(-86.612 -55.593)" fill="#bb5597"/>
      <path id="Path_564" data-name="Path 564" d="M182.344,100.541a11.554,11.554,0,0,1-4.16-.875c-1.135-.487-1.8-1.028-2.01-1.651a1.514,1.514,0,0,1,.508-1.6c1.287-1.316,5.984-3.3,7.692-2.773a3.12,3.12,0,0,1,1.9,2.926,3.606,3.606,0,0,1-1.894,3.594A4.881,4.881,0,0,1,182.344,100.541Zm-4.292-2.967c.908.681,4.2,1.593,5.571.953a1.861,1.861,0,0,0,.854-1.845c-.041-.648-.322-1.238-.648-1.325C182.942,95.1,179.026,96.629,178.052,97.574Z" transform="translate(-129.828 -54.946)" fill="#942882"/>
      <path id="Path_565" data-name="Path 565" d="M180.076,116.4a.908.908,0,0,1-.825-.582c-.611-1.6-5.633-8.253-9.693-8.633a.9.9,0,0,1,.169-1.8c4.911.47,10.37,7.605,11.208,9.784a.908.908,0,0,1-.825,1.238Z" transform="translate(-125.5 -61.895)" fill="#942882"/>
      <path id="Path_566" data-name="Path 566" d="M179.675,111.712a.9.9,0,0,1-.825-.578c-.479-1.238-4.684-3.5-9.293-3.945a.9.9,0,0,1,.169-1.8c4.349.413,9.854,2.612,10.807,5.1a.9.9,0,0,1-.52,1.164A.983.983,0,0,1,179.675,111.712Z" transform="translate(-125.5 -61.895)" fill="#942882"/>
      <path id="Path_567" data-name="Path 567" d="M160.418,208.239c3.739,3.033,10.4.454,12.871-1.519,3.433-2.744,5.006-8.216,4.609-12.128a35.411,35.411,0,0,0-2.332-10.213,19.539,19.539,0,0,1-.974,11.022c-1.993,5.278-6.322,6.4-10.151,6.891C161.759,202.635,156.7,205.222,160.418,208.239Z" transform="translate(-118.552 -117.175)" fill="url(#linear-gradient-5)"/>
      <path id="Path_568" data-name="Path 568" d="M103.731,102.543h29.818c.66,0,1.2-1.188,1.2-2.653V97.707a3.745,3.745,0,0,0-.668-2.377c-.59,2.509-2.847,5.3-9.33,5.3-7.316,0-17.789.454-22.217-.825v.107C102.53,101.355,103.066,102.543,103.731,102.543Z" transform="translate(-86.612 -55.986)" fill="#942882"/>
      <path id="Path_569" data-name="Path 569" d="M132.928,184.154c-.066-.066-.095-.066-.161,0l-6.8,6.8-.058.058c-.033.033-.049.037-.091,0l-6.862-6.871c-.05-.049-.074-.049-.124,0l-1.453,1.457-2.476,2.447c-.087.087-.087.087,0,.173l10.849,10.853c.029.029.07.05.078.095h0l.087-.087,2.711-2.707L136.8,188.2c.054-.054.058-.078,0-.136Z" transform="translate(-93.844 -108.125)" fill="#fff"/>
      <path id="Path_570" data-name="Path 570" d="M173.455,171.287l-3.9-3.9c-.066-.066-.095-.062-.161,0-1.131,1.139-2.27,2.274-3.4,3.409-.177.177-.351.355-.528.528-.045.041-.037.054,0,.091q1.981,1.973,3.953,3.953c.054.054.083.041.124,0l.041-.045,3.871-3.867a.226.226,0,0,1,.083-.07h0Z" transform="translate(-123.559 -98.283)" fill="#fff"/>
      <path id="Path_571" data-name="Path 571" d="M106.1,171.285q-1.952-1.948-3.9-3.9c-.062-.062-.095-.066-.161,0q-.615.623-1.238,1.238-1.333,1.337-2.666,2.666c0,.025-.037.054-.074.062v.033c.033,0,.05.033.07.054l3.916,3.916c.062.062.087.058.144,0l3.908-3.908C106.16,171.38,106.165,171.347,106.1,171.285Z" transform="translate(-83.987 -98.277)" fill="#fff"/>
      <path id="Path_572" data-name="Path 572" d="M136.826,144.591q-5.439-5.422-10.878-10.878c-.066-.066-.1-.058-.161,0L114.84,144.662l3.978,3.986c.066.066.095.058.157,0l6.784-6.788c.12-.12.1-.12.219,0l6.788,6.8c.07.066.1.058.165,0q1.626-1.651,3.26-3.264l.652-.656a.115.115,0,0,0,.054-.087.276.276,0,0,1-.07-.062Z" transform="translate(-93.842 -78.504)" fill="#fff"/>
      <path id="Path_573" data-name="Path 573" d="M135.674,167.212l-3.986,3.986c-.062.058-.054.087,0,.144q1.993,1.981,3.974,3.97c.062.062.091.066.153,0q1.981-1.993,3.97-3.974l.045-.045a.231.231,0,0,0,.021-.033l-.054-.058-3.99-3.994C135.753,167.158,135.728,167.158,135.674,167.212Z" transform="translate(-103.713 -98.182)" fill="#fff"/>
      <path id="Path_575" data-name="Path 575" d="M101.564,119.9c-.9-.376-7.176-.252-8.34.487S82.875,141.4,82.26,146.108c-.355,2.719,2.662-3.3,8.6-12.38S102.356,120.231,101.564,119.9Z" transform="translate(-74.69 -70.295)" fill="url(#linear-gradient-6)"/>
      <g id="Group_23" data-name="Group 23" transform="translate(0 0)" clip-path="url(#clip-path)">
        <path id="Path_576" data-name="Path 576" d="M148.735,25.968c2.447-.706,3.574-4.259,2.513-7.935s-3.9-6.087-6.351-5.364l-1.308.376c-2.451.706-3.578,4.263-2.517,7.939s3.9,6.07,6.338,5.364Z" transform="translate(-109.015 -7.36)" fill="#632438"/>
        <path id="Path_577" data-name="Path 577" d="M140.963,21.171a6.822,6.822,0,0,1,.173-2.063c.087-.446.545-1.6.487-1.737a7.147,7.147,0,0,0-.941,4.448C140.843,21.938,141.033,21.633,140.963,21.171Z" transform="translate(-108.993 -10.197)" fill="#be714c" opacity="0.28"/>
        <path id="Path_578" data-name="Path 578" d="M146.415,37.506s0-.322-1.077-.908c-2.393-1.3-3.037-2.975-3.97-4.977a1.186,1.186,0,0,0-.128-.231c.049.215.1.413.165.648C142.276,35.054,144.347,37.217,146.415,37.506Z" transform="translate(-109.348 -18.431)" fill="#be714c" opacity="0.28"/>
        <path id="Path_579" data-name="Path 579" d="M143.453,12.827l1.308-.376c2.476-.718,5.365,1.721,6.45,5.435s-.083,7.316-2.571,8.034l-1.308.376c-2.476.718-5.365-1.721-6.45-5.435S140.964,13.545,143.453,12.827Zm5.142,12.941c2.406-.693,3.512-4.209,2.476-7.84s-3.862-6.016-6.252-5.323l-1.308.376c-2.4.693-3.508,4.209-2.476,7.84s3.85,6.016,6.26,5.323Z" transform="translate(-108.899 -7.234)" fill="#632438"/>
        <ellipse id="Ellipse_15" data-name="Ellipse 15" cx="4.613" cy="6.928" rx="4.613" ry="6.928" transform="matrix(0.961, -0.277, 0.277, 0.961, 31.452, 6.574)" fill="url(#linear-gradient-7)"/>
        <path id="Path_580" data-name="Path 580" d="M146.623,12.452c2.476-.718,5.364,1.721,6.45,5.435s-.083,7.316-2.571,8.034-5.365-1.721-6.45-5.435S144.134,13.165,146.623,12.452Zm3.834,13.316c2.406-.693,3.512-4.209,2.476-7.84s-3.862-6.016-6.252-5.323-3.508,4.2-2.476,7.84S148.055,26.461,150.456,25.768Z" transform="translate(-110.761 -7.234)" fill="url(#linear-gradient-8)"/>
        <g id="Group_19" data-name="Group 19" transform="translate(33.377 5.18)">
          <path id="Path_581" data-name="Path 581" d="M149.66,19.291a14.783,14.783,0,0,1,3.124,5.624c1.279-1.477,1.7-4.147.912-6.883-1.056-3.677-3.9-6.087-6.351-5.364a3.945,3.945,0,0,0-2.5,2.653A15.83,15.83,0,0,1,149.66,19.291Z" transform="translate(-144.84 -12.54)" fill="url(#linear-gradient-9)"/>
        </g>
        <path id="Path_582" data-name="Path 582" d="M154.527,19.654c-.9-3.1-3.3-5.129-5.414-4.539A3.144,3.144,0,0,0,147.26,16.7a2.831,2.831,0,0,1,1.58-1.238c1.977-.569,4.267,1.374,5.121,4.337s-.054,5.827-2.026,6.4a2.843,2.843,0,0,1-2-.206,3.1,3.1,0,0,0,2.414.359C154.448,25.765,155.406,22.761,154.527,19.654Z" transform="translate(-112.884 -8.812)" fill="#632438"/>
        <path id="Path_583" data-name="Path 583" d="M148.057,15.33l-.165.066-.194.074-.243.14a1.622,1.622,0,0,0-.285.2c-.049.041-.1.078-.153.124l-.149.153a3.813,3.813,0,0,0-.574.788q-.124.243-.235.508a4.6,4.6,0,0,0-.182.569,6.851,6.851,0,0,0-.21,1.275,8.665,8.665,0,0,0,.045,1.382,9.537,9.537,0,0,0,.281,1.4,9.408,9.408,0,0,0,.508,1.337,8.216,8.216,0,0,0,.7,1.193,6.8,6.8,0,0,0,.854.974,5.579,5.579,0,0,0,.458.388c.157.111.318.21.47.3l.235.12.116.058.116.045a2.889,2.889,0,0,0,.442.144l.206.05h.194a1.729,1.729,0,0,0,.347.021h.281l.206-.037.169-.033-.169.037-.2.045a1.207,1.207,0,0,0-.285.025,1.7,1.7,0,0,1-.351,0h-.2l-.21-.045a3.557,3.557,0,0,1-.933-.347,4.837,4.837,0,0,1-.483-.3c-.153-.12-.322-.235-.475-.38a6.483,6.483,0,0,1-.879-.974,8.125,8.125,0,0,1-.718-1.209,8.24,8.24,0,0,1-.8-2.773,7.688,7.688,0,0,1-.037-1.407,6.344,6.344,0,0,1,.227-1.292,5.941,5.941,0,0,1,.2-.578,5.369,5.369,0,0,1,.248-.512,3.635,3.635,0,0,1,.607-.788l.153-.149c.054-.041.111-.078.161-.12a2.062,2.062,0,0,1,.293-.19c.095-.05.177-.1.252-.132l.2-.07Z" transform="translate(-111.874 -8.999)" fill="url(#linear-gradient-10)"/>
        <path id="Path_584" data-name="Path 584" d="M159.67,20.652a7.251,7.251,0,0,0-2.34-3.182c.128.14,3.248,3.582,2.546,7.234a3.359,3.359,0,0,0-.033.825A6.436,6.436,0,0,0,159.67,20.652Z" transform="translate(-118.799 -10.256)" fill="url(#linear-gradient-11)"/>
        <path id="Path_585" data-name="Path 585" d="M161.6,63.012c-2.447-.706-3.574-4.263-2.517-7.939s3.9-6.087,6.355-5.364l1.308.38c2.447.706,3.574,4.259,2.517,7.935s-3.908,6.087-6.355,5.364Z" transform="translate(-119.597 -29.115)" fill="#632438"/>
        <path id="Path_586" data-name="Path 586" d="M183.583,58.211a6.665,6.665,0,0,0-.177-2.063c-.083-.45-.541-1.605-.483-1.737a7.114,7.114,0,0,1,.937,4.448C183.7,58.978,183.509,58.677,183.583,58.211Z" transform="translate(-133.828 -31.952)" fill="#be714c" opacity="0.28"/>
        <path id="Path_587" data-name="Path 587" d="M172.18,74.546s0-.322,1.077-.908c2.393-1.3,3.037-2.975,3.97-4.977a1.752,1.752,0,0,1,.124-.231c-.045.215-.1.413-.161.648C176.319,72.094,174.247,74.257,172.18,74.546Z" transform="translate(-127.521 -40.187)" fill="#be714c" opacity="0.28"/>
        <path id="Path_588" data-name="Path 588" d="M166.65,49.867l-1.308-.376c-2.476-.718-5.365,1.721-6.45,5.435s.083,7.316,2.571,8.034l1.308.376c2.476.718,5.364-1.721,6.45-5.435S169.138,50.585,166.65,49.867ZM161.5,62.808c-2.4-.693-3.508-4.209-2.476-7.84s3.867-6.016,6.272-5.34l1.308.376c2.4.693,3.508,4.209,2.476,7.84s-3.867,6.033-6.26,5.34Z" transform="translate(-119.477 -28.99)" fill="#632438"/>
        <ellipse id="Ellipse_16" data-name="Ellipse 16" cx="6.928" cy="4.613" rx="6.928" ry="4.613" transform="translate(37.751 32.742) rotate(-73.74)" fill="url(#linear-gradient-12)"/>
        <path id="Path_589" data-name="Path 589" d="M165.342,49.492c-2.476-.718-5.365,1.721-6.45,5.435s.083,7.316,2.571,8.034,5.365-1.721,6.45-5.435S167.83,50.21,165.342,49.492ZM161.5,62.808c-2.4-.693-3.508-4.209-2.476-7.84s3.867-6.016,6.272-5.34,3.508,4.209,2.476,7.84S163.91,63.5,161.5,62.808Z" transform="translate(-119.477 -28.99)" fill="url(#linear-gradient-13)"/>
        <g id="Group_20" data-name="Group 20" transform="translate(39.091 20.465)">
          <path id="Path_590" data-name="Path 590" d="M163.124,56.331A14.792,14.792,0,0,0,160,61.956c-1.275-1.477-1.7-4.127-.912-6.883,1.061-3.677,3.9-6.087,6.355-5.364a3.954,3.954,0,0,1,2.5,2.653A15.829,15.829,0,0,0,163.124,56.331Z" transform="translate(-158.687 -49.58)" fill="url(#linear-gradient-14)"/>
        </g>
        <path id="Path_591" data-name="Path 591" d="M160.616,56.7c.9-3.1,3.3-5.133,5.41-4.539a3.124,3.124,0,0,1,1.857,1.589,2.839,2.839,0,0,0-1.58-1.238c-1.977-.569-4.267,1.374-5.121,4.337s.054,5.827,2.026,6.4a2.8,2.8,0,0,0,2-.206,3.12,3.12,0,0,1-2.414.363C160.695,62.809,159.721,59.805,160.616,56.7Z" transform="translate(-120.533 -30.572)" fill="#632438"/>
        <path id="Path_592" data-name="Path 592" d="M169.715,52.38l.161.062.194.074c.074.037.157.087.248.14a1.621,1.621,0,0,1,.285.2c.045.041.1.078.153.124l.149.153a3.927,3.927,0,0,1,.574.788c.078.161.161.33.235.508a5.094,5.094,0,0,1,.182.569,6.861,6.861,0,0,1,.206,1.275,7.8,7.8,0,0,1-.045,1.382,8.565,8.565,0,0,1-.281,1.4,8.948,8.948,0,0,1-.508,1.337,7.907,7.907,0,0,1-.7,1.2,7.016,7.016,0,0,1-.85.953c-.149.144-.309.26-.462.384a4.285,4.285,0,0,1-.466.305l-.235.12-.115.054-.116.045a2.89,2.89,0,0,1-.442.144l-.206.05-.194.025a2.065,2.065,0,0,1-.347,0h-.281l-.206-.041-.169-.033.169.041.2.045h.281a1.675,1.675,0,0,0,.351,0h.2l.21-.045a3.517,3.517,0,0,0,.928-.342c.161-.091.322-.19.483-.3a4.494,4.494,0,0,0,.475-.384,6.1,6.1,0,0,0,.883-.974,7.764,7.764,0,0,0,.714-1.209,8.616,8.616,0,0,0,.524-1.349,9.035,9.035,0,0,0,.276-1.424,8.024,8.024,0,0,0,.037-1.4,6.377,6.377,0,0,0-.227-1.3,5.49,5.49,0,0,0-.2-.574c-.078-.182-.165-.355-.252-.512a3.411,3.411,0,0,0-.6-.788l-.157-.149c-.05-.045-.107-.083-.157-.12a1.649,1.649,0,0,0-.3-.194l-.248-.132-.2-.066Z" transform="translate(-124.173 -30.76)" fill="url(#linear-gradient-15)"/>
        <path id="Path_593" data-name="Path 593" d="M162.12,57.692a7.275,7.275,0,0,1,2.34-3.182c-.128.14-3.248,3.586-2.55,7.234a3,3,0,0,1,.033.825A6.618,6.618,0,0,1,162.12,57.692Z" transform="translate(-121.282 -32.011)" fill="url(#linear-gradient-16)"/>
        <path id="Path_594" data-name="Path 594" d="M134.212,65.549c1.63-2.005.5-5.616-2.509-8.059s-6.78-2.8-8.41-.792l-.867,1.073c-1.63,2.006-.5,5.616,2.509,8.063s6.78,2.814,8.431.8Z" transform="translate(-97.859 -32.531)" fill="#632438"/>
        <path id="Path_595" data-name="Path 595" d="M123.339,70.495a6.788,6.788,0,0,1-1.056-1.82c-.186-.413-.479-1.651-.6-1.725a7.254,7.254,0,0,0,1.783,4.246C123.681,71.2,123.665,70.841,123.339,70.495Z" transform="translate(-97.86 -39.317)" fill="#be714c" opacity="0.28"/>
        <path id="Path_596" data-name="Path 596" d="M136.183,81.738s-.177-.272-1.424-.132c-2.744.314-4.254-.71-6.19-1.836a1.4,1.4,0,0,0-.239-.12c.165.153.334.3.512.446C131.318,82.1,134.293,82.683,136.183,81.738Z" transform="translate(-101.766 -46.777)" fill="#be714c" opacity="0.28"/>
        <path id="Path_597" data-name="Path 597" d="M122.256,57.653l.867-1.073c1.651-2.039,5.476-1.692,8.521.776s4.176,6.136,2.521,8.179L133.3,66.6c-1.651,2.039-5.476,1.692-8.521-.776S120.6,59.687,122.256,57.653Zm11.785,7.779c1.6-1.968.479-5.538-2.5-7.948s-6.693-2.773-8.294-.8l-.867,1.073c-1.6,1.972-.479,5.538,2.476,7.948s6.7,2.773,8.294.825Z" transform="translate(-97.75 -32.446)" fill="#632438"/>
        <ellipse id="Ellipse_17" data-name="Ellipse 17" cx="4.679" cy="7.027" rx="4.679" ry="7.027" transform="translate(22.491 27.823) rotate(-50.96)" fill="url(#linear-gradient-17)"/>
        <path id="Path_598" data-name="Path 598" d="M124.361,56.58c1.651-2.039,5.476-1.692,8.521.776s4.176,6.136,2.521,8.179-5.476,1.688-8.517-.78S122.71,58.618,124.361,56.58Zm10.919,8.851c1.6-1.968.479-5.538-2.5-7.948s-6.693-2.773-8.294-.8-.475,5.538,2.5,7.96S133.67,67.4,135.28,65.431Z" transform="translate(-98.989 -32.446)" fill="url(#linear-gradient-18)"/>
        <g id="Group_21" data-name="Group 21" transform="translate(24.689 22.88)">
          <path id="Path_599" data-name="Path 599" d="M130.307,60.916a15,15,0,0,1,5.864,2.864c.206-1.968-.986-4.432-3.231-6.252-3.016-2.447-6.78-2.8-8.41-.792a4,4,0,0,0-.545,3.66A15.978,15.978,0,0,1,130.307,60.916Z" transform="translate(-123.785 -55.433)" fill="url(#linear-gradient-19)"/>
        </g>
        <path id="Path_600" data-name="Path 600" d="M133.921,59.188c-2.546-2.063-5.736-2.344-7.127-.623a3.161,3.161,0,0,0-.623,2.393,2.889,2.889,0,0,1,.6-1.944c1.312-1.618,4.345-1.333,6.776.635s3.338,4.882,2.026,6.5a2.843,2.843,0,0,1-1.783.986,3.157,3.157,0,0,0,2.22-1.1C137.4,64.317,136.471,61.251,133.921,59.188Z" transform="translate(-100.478 -33.73)" fill="#632438"/>
        <path id="Path_601" data-name="Path 601" d="M126.715,60.27l-.1.144-.116.177c-.041.07-.078.161-.124.256a1.907,1.907,0,0,0-.12.33,1.014,1.014,0,0,1-.058.194l-.033.21a3.9,3.9,0,0,0,0,.99,5.65,5.65,0,0,0,.1.557,5.483,5.483,0,0,0,.177.582,7.013,7.013,0,0,0,.569,1.18,8.211,8.211,0,0,0,.825,1.127,8.752,8.752,0,0,0,2.245,1.816,7.667,7.667,0,0,0,1.263.578,6.817,6.817,0,0,0,1.275.309,4.357,4.357,0,0,0,.6.054h.569l.264-.037h.128l.12-.029a2.621,2.621,0,0,0,.45-.136l.2-.078c.062-.029.12-.066.177-.095a1.836,1.836,0,0,0,.3-.186c.087-.066.165-.12.227-.173l.149-.153.12-.124-.116.128-.144.157c-.062.058-.14.116-.223.182a1.652,1.652,0,0,1-.293.2l-.177.1-.2.087a3.611,3.611,0,0,1-.974.252c-.186,0-.38.033-.578.033a5.266,5.266,0,0,1-.615-.045,6.4,6.4,0,0,1-1.3-.3,7.9,7.9,0,0,1-1.3-.59,8.99,8.99,0,0,1-1.238-.825,9.227,9.227,0,0,1-1.061-1.023,8.418,8.418,0,0,1-.825-1.147,6.342,6.342,0,0,1-.561-1.209,4.779,4.779,0,0,1-.169-.594c-.041-.194-.07-.388-.091-.569a3.6,3.6,0,0,1,.045-1.007l.045-.215a.64.64,0,0,1,.062-.19,1.773,1.773,0,0,1,.132-.33c.05-.1.091-.186.132-.256l.124-.173Z" transform="translate(-100.427 -35.394)" fill="url(#linear-gradient-20)"/>
        <path id="Path_602" data-name="Path 602" d="M137.462,60.007a7.358,7.358,0,0,0-3.792-1.287c.186.041,4.783,1.1,6.318,4.539a3.054,3.054,0,0,0,.458.714A6.726,6.726,0,0,0,137.462,60.007Z" transform="translate(-104.902 -34.484)" fill="url(#linear-gradient-21)"/>
        <path id="Path_603" data-name="Path 603" d="M101.115,25.252c1.432,1.845,4.84,1.6,7.613-.549s3.858-5.389,2.426-7.234l-.763-.986c-1.432-1.849-4.84-1.605-7.613.545s-3.858,5.389-2.426,7.238Z" transform="translate(-84.961 -8.946)" fill="#632438"/>
        <path id="Path_604" data-name="Path 604" d="M111.552,16.083a6.318,6.318,0,0,1,1.82-.553c.413-.078,1.547-.078,1.651-.173a6.553,6.553,0,0,0-4.127.706C110.859,16.244,111.181,16.3,111.552,16.083Z" transform="translate(-91.524 -8.968)" fill="#be714c" opacity="0.28"/>
        <path id="Path_605" data-name="Path 605" d="M99.851,25.161s.276-.1.413-1.238c.293-2.476,1.5-3.594,2.889-5.067a1.88,1.88,0,0,0,.157-.186c-.169.116-.334.235-.5.359C100.52,20.808,99.381,23.3,99.851,25.161Z" transform="translate(-84.977 -10.96)" fill="#be714c" opacity="0.28"/>
        <path id="Path_606" data-name="Path 606" d="M110.374,16.339l.763.986c1.453,1.873.359,5.166-2.443,7.337s-6.26,2.41-7.7.532l-.763-.982c-1.453-1.878-.359-5.171,2.443-7.341S108.922,14.461,110.374,16.339ZM101.1,25.107c1.4,1.812,4.774,1.56,7.51-.561s3.821-5.319,2.414-7.135l-.763-.986c-1.4-1.812-4.774-1.56-7.51.561s-3.813,5.323-2.414,7.135Z" transform="translate(-84.887 -8.848)" fill="#632438"/>
        <ellipse id="Ellipse_18" data-name="Ellipse 18" cx="6.351" cy="4.23" rx="6.351" ry="4.23" transform="matrix(0.79, -0.613, 0.613, 0.79, 13.564, 12.957)" fill="url(#linear-gradient-22)"/>
        <path id="Path_607" data-name="Path 607" d="M112.235,18.733c1.453,1.873.359,5.166-2.443,7.337s-6.26,2.41-7.7.532-.359-5.166,2.443-7.337S110.782,16.864,112.235,18.733Zm-10.04,7.783c1.4,1.812,4.774,1.56,7.51-.561s3.821-5.319,2.414-7.135-4.774-1.543-7.51.561S100.788,24.7,102.195,26.516Z" transform="translate(-85.984 -10.256)" fill="url(#linear-gradient-23)"/>
        <g id="Group_22" data-name="Group 22" transform="translate(17.61 7.281)">
          <path id="Path_608" data-name="Path 608" d="M110.344,23.094a13.556,13.556,0,0,1-3.714,4.568c1.692.59,4.127.045,6.19-1.556,2.773-2.15,3.858-5.389,2.426-7.234a3.606,3.606,0,0,0-3.107-1.238A14.472,14.472,0,0,1,110.344,23.094Z" transform="translate(-106.63 -17.63)" fill="url(#linear-gradient-24)"/>
        </g>
        <path id="Path_609" data-name="Path 609" d="M110.707,26.864c2.34-1.816,3.243-4.568,2.022-6.144a2.889,2.889,0,0,0-1.985-1.04,2.583,2.583,0,0,1,1.589.924c1.155,1.49.276,4.1-1.956,5.835s-4.981,1.927-6.153.442a2.62,2.62,0,0,1-.5-1.774,2.864,2.864,0,0,0,.516,2.183C105.462,28.866,108.351,28.676,110.707,26.864Z" transform="translate(-87.287 -11.554)" fill="#632438"/>
        <path id="Path_610" data-name="Path 610" d="M112.71,20.552l-.107-.116-.132-.14c-.054-.05-.124-.1-.2-.161a1.506,1.506,0,0,0-.268-.173c-.05-.029-.1-.062-.157-.091l-.182-.074a3.326,3.326,0,0,0-.867-.219,5.029,5.029,0,0,0-.512-.029,4.229,4.229,0,0,0-.549.037,6.144,6.144,0,0,0-1.155.256,6.969,6.969,0,0,0-1.16.508,8.164,8.164,0,0,0-1.1.71,8.254,8.254,0,0,0-.966.887,7.015,7.015,0,0,0-.78,1A6.367,6.367,0,0,0,104.044,24a4.539,4.539,0,0,0-.173.52,4.91,4.91,0,0,0-.1.5l-.025.239V25.5a2.791,2.791,0,0,0,.029.413l.029.194a.673.673,0,0,0,.045.173,1.432,1.432,0,0,0,.1.3c.037.087.07.169.107.235l.1.161.078.136-.091-.132-.107-.157c-.037-.066-.07-.144-.116-.231a1.7,1.7,0,0,1-.1-.305,1.393,1.393,0,0,1-.054-.173l-.037-.194a3.3,3.3,0,0,1,0-.912c.025-.165.05-.338.091-.512a4.679,4.679,0,0,1,.165-.536,5.827,5.827,0,0,1,.532-1.081,7.54,7.54,0,0,1,.784-1.019,8.736,8.736,0,0,1,.974-.9,8.356,8.356,0,0,1,1.122-.722,7.709,7.709,0,0,1,1.18-.508,6.008,6.008,0,0,1,1.18-.243,4.287,4.287,0,0,1,.557-.025,5.136,5.136,0,0,1,.52.037,3.4,3.4,0,0,1,.879.248l.177.083c.058.029.107.066.157.095a1.738,1.738,0,0,1,.264.186l.194.169.128.144Z" transform="translate(-87.301 -11.423)" fill="url(#linear-gradient-25)"/>
        <path id="Path_611" data-name="Path 611" d="M115.156,30.79a6.644,6.644,0,0,0,1.919-3.07c-.074.157-1.952,3.982-5.3,4.622a2.958,2.958,0,0,0-.726.256A6.057,6.057,0,0,0,115.156,30.79Z" transform="translate(-91.616 -16.276)" fill="url(#linear-gradient-26)"/>
      </g>
      <path id="Path_613" data-name="Path 613" d="M106.029,98.021c1.106-.487,19.073-.735,21.941-.681s-18.569,2.686-20.657,2.476S105.481,98.248,106.029,98.021Z" transform="translate(-88.44 -57.163)" fill="#e98bb8"/>
      <path id="Path_614" data-name="Path 614" d="M134.987,55.054c-4.3-.289-10.11,9.314-19.568,8.814-6.6-.347-12.479-9.945-19.539-10.221-3.549-.14-5.364.631-5.74,1.906,5.253-2.026,9.73,2.748,16.155,6.722,6.648,4.127,12.813,3.809,18.842-.157s10.16-6.553,10.428-5.492C136.118,55.681,136.072,55.128,134.987,55.054Z" transform="translate(-79.335 -31.494)" fill="url(#linear-gradient-27)"/>
      <path id="Path_615" data-name="Path 615" d="M143.774,0l.594,1.609,1.609.594-1.609.594-.594,1.609-.6-1.609L141.57,2.2l1.605-.594Z" transform="translate(-109.542 4.714)" fill="#fff"/>
      <path id="Path_616" data-name="Path 616" d="M132.682,38.46l-.248,1.7,1.131,1.292-1.7-.243-1.292,1.127.248-1.7-1.131-1.3,1.7.248Z" transform="translate(-102.564 -17.876)" fill="#fff"/>
      <path id="Path_620" data-name="Path 620" d="M68.41,215.277a2.063,2.063,0,0,1,1.073-.054c.347.05.689.136,1.036.206a13.68,13.68,0,0,1,2.03.652,20.148,20.148,0,0,1,3.743,2.063c2.344,1.609,4.428,3.45,6.6,4.845a17.7,17.7,0,0,0,3.334,1.733,12.515,12.515,0,0,0,3.466.763,11.524,11.524,0,0,0,3.487-.289,23.661,23.661,0,0,0,3.627-1.238h.029a.71.71,0,0,1,.825,1.1,9.933,9.933,0,0,1-8.133,3.755,12.24,12.24,0,0,1-4.539-1.089c-.347-.153-.689-.322-1.027-.491s-.656-.376-.974-.574a17.935,17.935,0,0,1-1.812-1.292c-2.294-1.836-4.015-4.023-5.946-5.88A17.833,17.833,0,0,0,72.1,217.01a13.469,13.469,0,0,0-1.8-.924c-.314-.116-.623-.248-.949-.351A2.063,2.063,0,0,1,68.41,215.277Z" transform="translate(-66.291 -136.362)" fill="url(#linear-gradient-28)"/>
      <path id="Path_624" data-name="Path 624" d="M161.816,219.508c1.333-4.465,3.763-13.159,7.535-15.132,3.668-1.919,6.062.413,5.95,2.587s-2.571.97-5.431,2.6C165.48,212.056,160.5,223.915,161.816,219.508Z" transform="translate(-120.02 -128.618)" fill="url(#radial-gradient)"/>
    </g>
  </g>
</svg>
