<svg xmlns="http://www.w3.org/2000/svg" width="19.557" height="19.558" viewBox="0 0 19.557 19.558"><defs><style>.a{fill:#f2ba30;}</style></defs><path class="a" d="M14.192,3.99a9.846,9.846,0,0,0-8.892,14,8.833,8.833,0,0,0,4.672,4.672A9.806,9.806,0,1,0,14.192,3.99Zm0,1.467A8.389,8.389,0,0,1,21.53,17.829a7.141,7.141,0,0,1-3.279,3.278,8.343,8.343,0,1,1-4.059-15.65Zm-2.4,3.43a.733.733,0,0,0-.733.733V17.93a.733.733,0,0,0,.734.733l3.787-.007a2.819,2.819,0,0,0,2.8-2.794,2.764,2.764,0,0,0-1.247-2.28,2.781,2.781,0,0,0,.759-1.885,2.822,2.822,0,0,0-2.811-2.81Zm.733,1.467h2.559a1.344,1.344,0,1,1,0,2.687H12.522Zm0,4.155h3.05a1.34,1.34,0,0,1,0,2.681l-3.053.006Z" transform="translate(-4.413 -3.99)"/></svg>