<svg xmlns="http://www.w3.org/2000/svg" width="20.92" height="14" viewBox="0 0 20.92 14"><defs><style>.a{fill:#f2ba30;}</style></defs><path class="a" d="M4.743,10A1.758,1.758,0,0,0,3,11.75v2.515a.748.748,0,0,0,.84.744A1.312,1.312,0,0,1,4,15a2,2,0,0,1,0,4,1.312,1.312,0,0,1-.157-.009.748.748,0,0,0-.84.744V22.25A1.758,1.758,0,0,0,4.743,24H22.177a1.758,1.758,0,0,0,1.743-1.75V19.735a.748.748,0,0,0-.84-.744,1.314,1.314,0,0,1-.157.009,2,2,0,0,1,0-4,1.313,1.313,0,0,1,.157.009.748.748,0,0,0,.84-.744V11.75A1.758,1.758,0,0,0,22.177,10Zm0,1.5H22.177a.238.238,0,0,1,.249.25V13.6a3.427,3.427,0,0,0,0,6.8V22.25a.238.238,0,0,1-.249.25H4.743a.238.238,0,0,1-.249-.25V20.4a3.427,3.427,0,0,0,0-6.8V11.75A.238.238,0,0,1,4.743,11.5Zm8.965,1.644a.608.608,0,0,0-.6.343l-.042.105-.6,1.915H10.55a.656.656,0,0,0-.445,1.109l.079.07,1.557,1.184-.6,1.914a.635.635,0,0,0,.877.783l.083-.054,1.557-1.184,1.557,1.184a.627.627,0,0,0,.983-.63l-.023-.1-.594-1.914,1.557-1.184a.662.662,0,0,0-.264-1.172l-.1-.008H14.848l-.594-1.914A.615.615,0,0,0,13.708,13.144Z" transform="translate(-3 -10)"/></svg>